<svg viewBox="0 0 32 32" fill="none" xmlns="http://www.w3.org/2000/svg">
  <path d="M16 2C9.373 2 4 7.373 4 14c0 4.418 2.865 8.166 6.839 9.489C11.439 25.633 13.5 29 16 30c2.5-1 4.561-4.367 5.161-6.511C25.135 22.166 28 18.418 28 14c0-6.627-5.373-12-12-12z" fill="#0d9488" opacity="0.1" />
  <path d="M16 5c-4.97 0-9 4.03-9 9 0 3.866 2.441 7.162 5.868 8.432L16 27l3.132-4.568C22.559 21.162 25 17.866 25 14c0-4.97-4.03-9-9-9z" stroke="#0d9488" stroke-width="2" fill="none" />
  <circle cx="13" cy="13" r="2" fill="#eab308" />
  <circle cx="19" cy="13" r="2" fill="#eab308" />
  <path d="M12 17s1.5 2 4 2 4-2 4-2" stroke="#0d9488" stroke-width="1.5" stroke-linecap="round" />
</svg>
